<svg xmlns="http://www.w3.org/2000/svg" width="980" height="300" viewBox="0 0 980 300">
<rect width="100%" height="100%" fill="#0f172a" rx="12"/>
<text x="46" y="18" fill="#cbd5e1" font-family="Segoe UI, Arial, sans-serif" font-size="14" font-weight="600">Repo Commit Activity (Last 90 Days)</text>
<text x="46" y="36" fill="#cbd5e1" opacity="0.75" font-family="Segoe UI, Arial, sans-serif" font-size="11">Total commits: 76 | Active days: 65</text>
<line x1="46" y1="26" x2="960" y2="26" stroke="#334155" stroke-width="1" opacity="0.45"/>
<line x1="46" y1="77" x2="960" y2="77" stroke="#334155" stroke-width="1" opacity="0.45"/>
<line x1="46" y1="128" x2="960" y2="128" stroke="#334155" stroke-width="1" opacity="0.45"/>
<line x1="46" y1="179" x2="960" y2="179" stroke="#334155" stroke-width="1" opacity="0.45"/>
<line x1="46" y1="230" x2="960" y2="230" stroke="#334155" stroke-width="1" opacity="0.45"/>
<rect x="266" y="190" width="8" height="40" fill="#22d3ee" rx="1"/>
<rect x="296" y="150" width="8" height="80" fill="#14b8a6" rx="1"/>
<rect x="306" y="28" width="8" height="202" fill="#14b8a6" rx="1"/>
<rect x="316" y="190" width="8" height="40" fill="#22d3ee" rx="1"/>
<rect x="326" y="190" width="8" height="40" fill="#22d3ee" rx="1"/>
<rect x="336" y="69" width="8" height="161" fill="#14b8a6" rx="1"/>
<rect x="346" y="69" width="8" height="161" fill="#14b8a6" rx="1"/>
<rect x="356" y="190" width="8" height="40" fill="#22d3ee" rx="1"/>
<rect x="366" y="190" width="8" height="40" fill="#22d3ee" rx="1"/>
<rect x="376" y="190" width="8" height="40" fill="#22d3ee" rx="1"/>
<rect x="386" y="190" width="8" height="40" fill="#22d3ee" rx="1"/>
<rect x="396" y="190" width="8" height="40" fill="#22d3ee" rx="1"/>
<rect x="406" y="190" width="8" height="40" fill="#22d3ee" rx="1"/>
<rect x="416" y="190" width="8" height="40" fill="#22d3ee" rx="1"/>
<rect x="426" y="190" width="8" height="40" fill="#22d3ee" rx="1"/>
<rect x="436" y="190" width="8" height="40" fill="#22d3ee" rx="1"/>
<rect x="446" y="190" width="8" height="40" fill="#22d3ee" rx="1"/>
<rect x="456" y="190" width="8" height="40" fill="#22d3ee" rx="1"/>
<rect x="466" y="190" width="8" height="40" fill="#22d3ee" rx="1"/>
<rect x="476" y="190" width="8" height="40" fill="#22d3ee" rx="1"/>
<rect x="486" y="190" width="8" height="40" fill="#22d3ee" rx="1"/>
<rect x="496" y="190" width="8" height="40" fill="#22d3ee" rx="1"/>
<rect x="506" y="190" width="8" height="40" fill="#22d3ee" rx="1"/>
<rect x="516" y="190" width="8" height="40" fill="#22d3ee" rx="1"/>
<rect x="526" y="190" width="8" height="40" fill="#22d3ee" rx="1"/>
<rect x="536" y="190" width="8" height="40" fill="#22d3ee" rx="1"/>
<rect x="546" y="190" width="8" height="40" fill="#22d3ee" rx="1"/>
<rect x="556" y="190" width="8" height="40" fill="#22d3ee" rx="1"/>
<rect x="566" y="190" width="8" height="40" fill="#22d3ee" rx="1"/>
<rect x="576" y="190" width="8" height="40" fill="#22d3ee" rx="1"/>
<rect x="586" y="190" width="8" height="40" fill="#22d3ee" rx="1"/>
<rect x="596" y="190" width="8" height="40" fill="#22d3ee" rx="1"/>
<rect x="606" y="190" width="8" height="40" fill="#22d3ee" rx="1"/>
<rect x="616" y="190" width="8" height="40" fill="#22d3ee" rx="1"/>
<rect x="626" y="190" width="8" height="40" fill="#22d3ee" rx="1"/>
<rect x="636" y="190" width="8" height="40" fill="#22d3ee" rx="1"/>
<rect x="646" y="190" width="8" height="40" fill="#22d3ee" rx="1"/>
<rect x="656" y="190" width="8" height="40" fill="#22d3ee" rx="1"/>
<rect x="666" y="190" width="8" height="40" fill="#22d3ee" rx="1"/>
<rect x="676" y="190" width="8" height="40" fill="#22d3ee" rx="1"/>
<rect x="686" y="190" width="8" height="40" fill="#22d3ee" rx="1"/>
<rect x="696" y="190" width="8" height="40" fill="#22d3ee" rx="1"/>
<rect x="706" y="190" width="8" height="40" fill="#22d3ee" rx="1"/>
<rect x="716" y="190" width="8" height="40" fill="#22d3ee" rx="1"/>
<rect x="726" y="190" width="8" height="40" fill="#22d3ee" rx="1"/>
<rect x="736" y="190" width="8" height="40" fill="#22d3ee" rx="1"/>
<rect x="746" y="190" width="8" height="40" fill="#22d3ee" rx="1"/>
<rect x="756" y="190" width="8" height="40" fill="#22d3ee" rx="1"/>
<rect x="766" y="190" width="8" height="40" fill="#22d3ee" rx="1"/>
<rect x="776" y="190" width="8" height="40" fill="#22d3ee" rx="1"/>
<rect x="786" y="190" width="8" height="40" fill="#22d3ee" rx="1"/>
<rect x="796" y="190" width="8" height="40" fill="#22d3ee" rx="1"/>
<rect x="806" y="190" width="8" height="40" fill="#22d3ee" rx="1"/>
<rect x="816" y="190" width="8" height="40" fill="#22d3ee" rx="1"/>
<rect x="826" y="190" width="8" height="40" fill="#22d3ee" rx="1"/>
<rect x="836" y="190" width="8" height="40" fill="#22d3ee" rx="1"/>
<rect x="846" y="190" width="8" height="40" fill="#22d3ee" rx="1"/>
<rect x="856" y="190" width="8" height="40" fill="#22d3ee" rx="1"/>
<rect x="866" y="190" width="8" height="40" fill="#22d3ee" rx="1"/>
<rect x="876" y="190" width="8" height="40" fill="#22d3ee" rx="1"/>
<rect x="886" y="190" width="8" height="40" fill="#22d3ee" rx="1"/>
<rect x="896" y="190" width="8" height="40" fill="#22d3ee" rx="1"/>
<rect x="906" y="190" width="8" height="40" fill="#22d3ee" rx="1"/>
<rect x="916" y="190" width="8" height="40" fill="#22d3ee" rx="1"/>
<rect x="926" y="190" width="8" height="40" fill="#22d3ee" rx="1"/>
<text x="46" y="256" fill="#cbd5e1" opacity="0.7" font-family="Segoe UI, Arial, sans-serif" font-size="10">Feb</text>
<text x="136" y="256" fill="#cbd5e1" opacity="0.7" font-family="Segoe UI, Arial, sans-serif" font-size="10">Mar</text>
<text x="446" y="256" fill="#cbd5e1" opacity="0.7" font-family="Segoe UI, Arial, sans-serif" font-size="10">Apr</text>
<text x="746" y="256" fill="#cbd5e1" opacity="0.7" font-family="Segoe UI, Arial, sans-serif" font-size="10">May</text>
<text x="46" y="268" fill="#cbd5e1" opacity="0.8" font-family="Segoe UI, Arial, sans-serif" font-size="10">Recent commits</text>
<line x1="46" y1="276" x2="960" y2="276" stroke="#334155" stroke-width="1" opacity="0.5"/>
<circle cx="46" cy="276" r="3" fill="#67e8f9"/>
<circle cx="58" cy="276" r="3" fill="#67e8f9"/>
<circle cx="70" cy="276" r="3" fill="#67e8f9"/>
<circle cx="82" cy="276" r="3" fill="#67e8f9"/>
<circle cx="94" cy="276" r="3" fill="#67e8f9"/>
<circle cx="106" cy="276" r="3" fill="#67e8f9"/>
<circle cx="119" cy="276" r="3" fill="#67e8f9"/>
<circle cx="131" cy="276" r="3" fill="#67e8f9"/>
<circle cx="143" cy="276" r="3" fill="#67e8f9"/>
<circle cx="155" cy="276" r="3" fill="#67e8f9"/>
<circle cx="167" cy="276" r="3" fill="#67e8f9"/>
<circle cx="180" cy="276" r="3" fill="#67e8f9"/>
<circle cx="192" cy="276" r="3" fill="#67e8f9"/>
<circle cx="204" cy="276" r="3" fill="#67e8f9"/>
<circle cx="216" cy="276" r="3" fill="#67e8f9"/>
<circle cx="228" cy="276" r="3" fill="#67e8f9"/>
<circle cx="240" cy="276" r="3" fill="#67e8f9"/>
<circle cx="253" cy="276" r="3" fill="#67e8f9"/>
<circle cx="265" cy="276" r="3" fill="#67e8f9"/>
<circle cx="277" cy="276" r="3" fill="#67e8f9"/>
<circle cx="289" cy="276" r="3" fill="#67e8f9"/>
<circle cx="301" cy="276" r="3" fill="#67e8f9"/>
<circle cx="314" cy="276" r="3" fill="#67e8f9"/>
<circle cx="326" cy="276" r="3" fill="#67e8f9"/>
<circle cx="338" cy="276" r="3" fill="#67e8f9"/>
<circle cx="350" cy="276" r="3" fill="#67e8f9"/>
<circle cx="362" cy="276" r="3" fill="#67e8f9"/>
<circle cx="375" cy="276" r="3" fill="#67e8f9"/>
<circle cx="387" cy="276" r="3" fill="#67e8f9"/>
<circle cx="399" cy="276" r="3" fill="#67e8f9"/>
<circle cx="411" cy="276" r="3" fill="#67e8f9"/>
<circle cx="423" cy="276" r="3" fill="#67e8f9"/>
<circle cx="435" cy="276" r="3" fill="#67e8f9"/>
<circle cx="448" cy="276" r="3" fill="#67e8f9"/>
<circle cx="460" cy="276" r="3" fill="#67e8f9"/>
<circle cx="472" cy="276" r="3" fill="#67e8f9"/>
<circle cx="484" cy="276" r="3" fill="#67e8f9"/>
<circle cx="496" cy="276" r="3" fill="#67e8f9"/>
<circle cx="509" cy="276" r="3" fill="#67e8f9"/>
<circle cx="521" cy="276" r="3" fill="#67e8f9"/>
<circle cx="533" cy="276" r="3" fill="#67e8f9"/>
<circle cx="545" cy="276" r="3" fill="#67e8f9"/>
<circle cx="557" cy="276" r="3" fill="#67e8f9"/>
<circle cx="570" cy="276" r="3" fill="#67e8f9"/>
<circle cx="582" cy="276" r="3" fill="#67e8f9"/>
<circle cx="594" cy="276" r="3" fill="#67e8f9"/>
<circle cx="606" cy="276" r="3" fill="#67e8f9"/>
<circle cx="618" cy="276" r="3" fill="#67e8f9"/>
<circle cx="630" cy="276" r="3" fill="#67e8f9"/>
<circle cx="643" cy="276" r="3" fill="#67e8f9"/>
<circle cx="655" cy="276" r="3" fill="#67e8f9"/>
<circle cx="667" cy="276" r="3" fill="#67e8f9"/>
<circle cx="679" cy="276" r="3" fill="#67e8f9"/>
<circle cx="691" cy="276" r="3" fill="#67e8f9"/>
<circle cx="704" cy="276" r="3" fill="#67e8f9"/>
<circle cx="716" cy="276" r="3" fill="#67e8f9"/>
<circle cx="728" cy="276" r="3" fill="#67e8f9"/>
<circle cx="740" cy="276" r="3" fill="#67e8f9"/>
<circle cx="752" cy="276" r="3" fill="#67e8f9"/>
<circle cx="765" cy="276" r="3" fill="#67e8f9"/>
<circle cx="777" cy="276" r="3" fill="#67e8f9"/>
<circle cx="789" cy="276" r="3" fill="#67e8f9"/>
<circle cx="801" cy="276" r="3" fill="#67e8f9"/>
<circle cx="813" cy="276" r="3" fill="#67e8f9"/>
<circle cx="825" cy="276" r="3" fill="#67e8f9"/>
<circle cx="838" cy="276" r="3" fill="#67e8f9"/>
<circle cx="850" cy="276" r="3" fill="#67e8f9"/>
<circle cx="862" cy="276" r="3" fill="#67e8f9"/>
<circle cx="874" cy="276" r="3" fill="#67e8f9"/>
<circle cx="886" cy="276" r="3" fill="#67e8f9"/>
<circle cx="899" cy="276" r="3" fill="#67e8f9"/>
<circle cx="911" cy="276" r="3" fill="#67e8f9"/>
<circle cx="923" cy="276" r="3" fill="#67e8f9"/>
<circle cx="935" cy="276" r="3" fill="#67e8f9"/>
<circle cx="947" cy="276" r="3" fill="#67e8f9"/>
<circle cx="960" cy="276" r="3" fill="#67e8f9"/>
</svg>