<svg xmlns="http://www.w3.org/2000/svg" width="980" height="300" viewBox="0 0 980 300">
<rect width="100%" height="100%" fill="#0f172a" rx="12"/>
<text x="46" y="18" fill="#cbd5e1" font-family="Segoe UI, Arial, sans-serif" font-size="14" font-weight="600">Repo Commit Activity (Last 90 Days)</text>
<text x="46" y="36" fill="#cbd5e1" opacity="0.75" font-family="Segoe UI, Arial, sans-serif" font-size="11">Total commits: 58 | Active days: 47</text>
<line x1="46" y1="26" x2="960" y2="26" stroke="#334155" stroke-width="1" opacity="0.45"/>
<line x1="46" y1="77" x2="960" y2="77" stroke="#334155" stroke-width="1" opacity="0.45"/>
<line x1="46" y1="128" x2="960" y2="128" stroke="#334155" stroke-width="1" opacity="0.45"/>
<line x1="46" y1="179" x2="960" y2="179" stroke="#334155" stroke-width="1" opacity="0.45"/>
<line x1="46" y1="230" x2="960" y2="230" stroke="#334155" stroke-width="1" opacity="0.45"/>
<rect x="446" y="190" width="8" height="40" fill="#22d3ee" rx="1"/>
<rect x="476" y="150" width="8" height="80" fill="#14b8a6" rx="1"/>
<rect x="486" y="28" width="8" height="202" fill="#14b8a6" rx="1"/>
<rect x="496" y="190" width="8" height="40" fill="#22d3ee" rx="1"/>
<rect x="506" y="190" width="8" height="40" fill="#22d3ee" rx="1"/>
<rect x="516" y="69" width="8" height="161" fill="#14b8a6" rx="1"/>
<rect x="526" y="69" width="8" height="161" fill="#14b8a6" rx="1"/>
<rect x="536" y="190" width="8" height="40" fill="#22d3ee" rx="1"/>
<rect x="546" y="190" width="8" height="40" fill="#22d3ee" rx="1"/>
<rect x="556" y="190" width="8" height="40" fill="#22d3ee" rx="1"/>
<rect x="566" y="190" width="8" height="40" fill="#22d3ee" rx="1"/>
<rect x="576" y="190" width="8" height="40" fill="#22d3ee" rx="1"/>
<rect x="586" y="190" width="8" height="40" fill="#22d3ee" rx="1"/>
<rect x="596" y="190" width="8" height="40" fill="#22d3ee" rx="1"/>
<rect x="606" y="190" width="8" height="40" fill="#22d3ee" rx="1"/>
<rect x="616" y="190" width="8" height="40" fill="#22d3ee" rx="1"/>
<rect x="626" y="190" width="8" height="40" fill="#22d3ee" rx="1"/>
<rect x="636" y="190" width="8" height="40" fill="#22d3ee" rx="1"/>
<rect x="646" y="190" width="8" height="40" fill="#22d3ee" rx="1"/>
<rect x="656" y="190" width="8" height="40" fill="#22d3ee" rx="1"/>
<rect x="666" y="190" width="8" height="40" fill="#22d3ee" rx="1"/>
<rect x="676" y="190" width="8" height="40" fill="#22d3ee" rx="1"/>
<rect x="686" y="190" width="8" height="40" fill="#22d3ee" rx="1"/>
<rect x="696" y="190" width="8" height="40" fill="#22d3ee" rx="1"/>
<rect x="706" y="190" width="8" height="40" fill="#22d3ee" rx="1"/>
<rect x="716" y="190" width="8" height="40" fill="#22d3ee" rx="1"/>
<rect x="726" y="190" width="8" height="40" fill="#22d3ee" rx="1"/>
<rect x="736" y="190" width="8" height="40" fill="#22d3ee" rx="1"/>
<rect x="746" y="190" width="8" height="40" fill="#22d3ee" rx="1"/>
<rect x="756" y="190" width="8" height="40" fill="#22d3ee" rx="1"/>
<rect x="766" y="190" width="8" height="40" fill="#22d3ee" rx="1"/>
<rect x="776" y="190" width="8" height="40" fill="#22d3ee" rx="1"/>
<rect x="786" y="190" width="8" height="40" fill="#22d3ee" rx="1"/>
<rect x="796" y="190" width="8" height="40" fill="#22d3ee" rx="1"/>
<rect x="806" y="190" width="8" height="40" fill="#22d3ee" rx="1"/>
<rect x="816" y="190" width="8" height="40" fill="#22d3ee" rx="1"/>
<rect x="826" y="190" width="8" height="40" fill="#22d3ee" rx="1"/>
<rect x="836" y="190" width="8" height="40" fill="#22d3ee" rx="1"/>
<rect x="846" y="190" width="8" height="40" fill="#22d3ee" rx="1"/>
<rect x="856" y="190" width="8" height="40" fill="#22d3ee" rx="1"/>
<rect x="866" y="190" width="8" height="40" fill="#22d3ee" rx="1"/>
<rect x="876" y="190" width="8" height="40" fill="#22d3ee" rx="1"/>
<rect x="886" y="190" width="8" height="40" fill="#22d3ee" rx="1"/>
<rect x="896" y="190" width="8" height="40" fill="#22d3ee" rx="1"/>
<rect x="906" y="190" width="8" height="40" fill="#22d3ee" rx="1"/>
<rect x="916" y="190" width="8" height="40" fill="#22d3ee" rx="1"/>
<rect x="926" y="190" width="8" height="40" fill="#22d3ee" rx="1"/>
<text x="46" y="256" fill="#cbd5e1" opacity="0.7" font-family="Segoe UI, Arial, sans-serif" font-size="10">Feb</text>
<text x="316" y="256" fill="#cbd5e1" opacity="0.7" font-family="Segoe UI, Arial, sans-serif" font-size="10">Mar</text>
<text x="626" y="256" fill="#cbd5e1" opacity="0.7" font-family="Segoe UI, Arial, sans-serif" font-size="10">Apr</text>
<text x="926" y="256" fill="#cbd5e1" opacity="0.7" font-family="Segoe UI, Arial, sans-serif" font-size="10">May</text>
<text x="46" y="268" fill="#cbd5e1" opacity="0.8" font-family="Segoe UI, Arial, sans-serif" font-size="10">Recent commits</text>
<line x1="46" y1="276" x2="960" y2="276" stroke="#334155" stroke-width="1" opacity="0.5"/>
<circle cx="46" cy="276" r="3" fill="#67e8f9"/>
<circle cx="62" cy="276" r="3" fill="#67e8f9"/>
<circle cx="78" cy="276" r="3" fill="#67e8f9"/>
<circle cx="94" cy="276" r="3" fill="#67e8f9"/>
<circle cx="110" cy="276" r="3" fill="#67e8f9"/>
<circle cx="126" cy="276" r="3" fill="#67e8f9"/>
<circle cx="142" cy="276" r="3" fill="#67e8f9"/>
<circle cx="158" cy="276" r="3" fill="#67e8f9"/>
<circle cx="174" cy="276" r="3" fill="#67e8f9"/>
<circle cx="190" cy="276" r="3" fill="#67e8f9"/>
<circle cx="206" cy="276" r="3" fill="#67e8f9"/>
<circle cx="222" cy="276" r="3" fill="#67e8f9"/>
<circle cx="238" cy="276" r="3" fill="#67e8f9"/>
<circle cx="254" cy="276" r="3" fill="#67e8f9"/>
<circle cx="270" cy="276" r="3" fill="#67e8f9"/>
<circle cx="286" cy="276" r="3" fill="#67e8f9"/>
<circle cx="302" cy="276" r="3" fill="#67e8f9"/>
<circle cx="318" cy="276" r="3" fill="#67e8f9"/>
<circle cx="334" cy="276" r="3" fill="#67e8f9"/>
<circle cx="350" cy="276" r="3" fill="#67e8f9"/>
<circle cx="366" cy="276" r="3" fill="#67e8f9"/>
<circle cx="382" cy="276" r="3" fill="#67e8f9"/>
<circle cx="398" cy="276" r="3" fill="#67e8f9"/>
<circle cx="414" cy="276" r="3" fill="#67e8f9"/>
<circle cx="430" cy="276" r="3" fill="#67e8f9"/>
<circle cx="446" cy="276" r="3" fill="#67e8f9"/>
<circle cx="462" cy="276" r="3" fill="#67e8f9"/>
<circle cx="478" cy="276" r="3" fill="#67e8f9"/>
<circle cx="494" cy="276" r="3" fill="#67e8f9"/>
<circle cx="511" cy="276" r="3" fill="#67e8f9"/>
<circle cx="527" cy="276" r="3" fill="#67e8f9"/>
<circle cx="543" cy="276" r="3" fill="#67e8f9"/>
<circle cx="559" cy="276" r="3" fill="#67e8f9"/>
<circle cx="575" cy="276" r="3" fill="#67e8f9"/>
<circle cx="591" cy="276" r="3" fill="#67e8f9"/>
<circle cx="607" cy="276" r="3" fill="#67e8f9"/>
<circle cx="623" cy="276" r="3" fill="#67e8f9"/>
<circle cx="639" cy="276" r="3" fill="#67e8f9"/>
<circle cx="655" cy="276" r="3" fill="#67e8f9"/>
<circle cx="671" cy="276" r="3" fill="#67e8f9"/>
<circle cx="687" cy="276" r="3" fill="#67e8f9"/>
<circle cx="703" cy="276" r="3" fill="#67e8f9"/>
<circle cx="719" cy="276" r="3" fill="#67e8f9"/>
<circle cx="735" cy="276" r="3" fill="#67e8f9"/>
<circle cx="751" cy="276" r="3" fill="#67e8f9"/>
<circle cx="767" cy="276" r="3" fill="#67e8f9"/>
<circle cx="783" cy="276" r="3" fill="#67e8f9"/>
<circle cx="799" cy="276" r="3" fill="#67e8f9"/>
<circle cx="815" cy="276" r="3" fill="#67e8f9"/>
<circle cx="831" cy="276" r="3" fill="#67e8f9"/>
<circle cx="847" cy="276" r="3" fill="#67e8f9"/>
<circle cx="863" cy="276" r="3" fill="#67e8f9"/>
<circle cx="879" cy="276" r="3" fill="#67e8f9"/>
<circle cx="895" cy="276" r="3" fill="#67e8f9"/>
<circle cx="911" cy="276" r="3" fill="#67e8f9"/>
<circle cx="927" cy="276" r="3" fill="#67e8f9"/>
<circle cx="943" cy="276" r="3" fill="#67e8f9"/>
<circle cx="960" cy="276" r="3" fill="#67e8f9"/>
</svg>