<svg xmlns="http://www.w3.org/2000/svg" width="980" height="300" viewBox="0 0 980 300">
<rect width="100%" height="100%" fill="#0f172a" rx="12"/>
<text x="46" y="18" fill="#cbd5e1" font-family="Segoe UI, Arial, sans-serif" font-size="14" font-weight="600">Repo Commit Activity (Last 90 Days)</text>
<text x="46" y="36" fill="#cbd5e1" opacity="0.75" font-family="Segoe UI, Arial, sans-serif" font-size="11">Total commits: 50 | Active days: 39</text>
<line x1="46" y1="26" x2="960" y2="26" stroke="#334155" stroke-width="1" opacity="0.45"/>
<line x1="46" y1="77" x2="960" y2="77" stroke="#334155" stroke-width="1" opacity="0.45"/>
<line x1="46" y1="128" x2="960" y2="128" stroke="#334155" stroke-width="1" opacity="0.45"/>
<line x1="46" y1="179" x2="960" y2="179" stroke="#334155" stroke-width="1" opacity="0.45"/>
<line x1="46" y1="230" x2="960" y2="230" stroke="#334155" stroke-width="1" opacity="0.45"/>
<rect x="526" y="190" width="8" height="40" fill="#22d3ee" rx="1"/>
<rect x="556" y="150" width="8" height="80" fill="#14b8a6" rx="1"/>
<rect x="566" y="28" width="8" height="202" fill="#14b8a6" rx="1"/>
<rect x="576" y="190" width="8" height="40" fill="#22d3ee" rx="1"/>
<rect x="586" y="190" width="8" height="40" fill="#22d3ee" rx="1"/>
<rect x="596" y="69" width="8" height="161" fill="#14b8a6" rx="1"/>
<rect x="606" y="69" width="8" height="161" fill="#14b8a6" rx="1"/>
<rect x="616" y="190" width="8" height="40" fill="#22d3ee" rx="1"/>
<rect x="626" y="190" width="8" height="40" fill="#22d3ee" rx="1"/>
<rect x="636" y="190" width="8" height="40" fill="#22d3ee" rx="1"/>
<rect x="646" y="190" width="8" height="40" fill="#22d3ee" rx="1"/>
<rect x="656" y="190" width="8" height="40" fill="#22d3ee" rx="1"/>
<rect x="666" y="190" width="8" height="40" fill="#22d3ee" rx="1"/>
<rect x="676" y="190" width="8" height="40" fill="#22d3ee" rx="1"/>
<rect x="686" y="190" width="8" height="40" fill="#22d3ee" rx="1"/>
<rect x="696" y="190" width="8" height="40" fill="#22d3ee" rx="1"/>
<rect x="706" y="190" width="8" height="40" fill="#22d3ee" rx="1"/>
<rect x="716" y="190" width="8" height="40" fill="#22d3ee" rx="1"/>
<rect x="726" y="190" width="8" height="40" fill="#22d3ee" rx="1"/>
<rect x="736" y="190" width="8" height="40" fill="#22d3ee" rx="1"/>
<rect x="746" y="190" width="8" height="40" fill="#22d3ee" rx="1"/>
<rect x="756" y="190" width="8" height="40" fill="#22d3ee" rx="1"/>
<rect x="766" y="190" width="8" height="40" fill="#22d3ee" rx="1"/>
<rect x="776" y="190" width="8" height="40" fill="#22d3ee" rx="1"/>
<rect x="786" y="190" width="8" height="40" fill="#22d3ee" rx="1"/>
<rect x="796" y="190" width="8" height="40" fill="#22d3ee" rx="1"/>
<rect x="806" y="190" width="8" height="40" fill="#22d3ee" rx="1"/>
<rect x="816" y="190" width="8" height="40" fill="#22d3ee" rx="1"/>
<rect x="826" y="190" width="8" height="40" fill="#22d3ee" rx="1"/>
<rect x="836" y="190" width="8" height="40" fill="#22d3ee" rx="1"/>
<rect x="846" y="190" width="8" height="40" fill="#22d3ee" rx="1"/>
<rect x="856" y="190" width="8" height="40" fill="#22d3ee" rx="1"/>
<rect x="866" y="190" width="8" height="40" fill="#22d3ee" rx="1"/>
<rect x="876" y="190" width="8" height="40" fill="#22d3ee" rx="1"/>
<rect x="886" y="190" width="8" height="40" fill="#22d3ee" rx="1"/>
<rect x="896" y="190" width="8" height="40" fill="#22d3ee" rx="1"/>
<rect x="906" y="190" width="8" height="40" fill="#22d3ee" rx="1"/>
<rect x="916" y="190" width="8" height="40" fill="#22d3ee" rx="1"/>
<rect x="926" y="190" width="8" height="40" fill="#22d3ee" rx="1"/>
<text x="46" y="256" fill="#cbd5e1" opacity="0.7" font-family="Segoe UI, Arial, sans-serif" font-size="10">Jan</text>
<text x="116" y="256" fill="#cbd5e1" opacity="0.7" font-family="Segoe UI, Arial, sans-serif" font-size="10">Feb</text>
<text x="396" y="256" fill="#cbd5e1" opacity="0.7" font-family="Segoe UI, Arial, sans-serif" font-size="10">Mar</text>
<text x="706" y="256" fill="#cbd5e1" opacity="0.7" font-family="Segoe UI, Arial, sans-serif" font-size="10">Apr</text>
<text x="46" y="268" fill="#cbd5e1" opacity="0.8" font-family="Segoe UI, Arial, sans-serif" font-size="10">Recent commits</text>
<line x1="46" y1="276" x2="960" y2="276" stroke="#334155" stroke-width="1" opacity="0.5"/>
<circle cx="46" cy="276" r="3" fill="#67e8f9"/>
<circle cx="64" cy="276" r="3" fill="#67e8f9"/>
<circle cx="83" cy="276" r="3" fill="#67e8f9"/>
<circle cx="101" cy="276" r="3" fill="#67e8f9"/>
<circle cx="120" cy="276" r="3" fill="#67e8f9"/>
<circle cx="139" cy="276" r="3" fill="#67e8f9"/>
<circle cx="157" cy="276" r="3" fill="#67e8f9"/>
<circle cx="176" cy="276" r="3" fill="#67e8f9"/>
<circle cx="195" cy="276" r="3" fill="#67e8f9"/>
<circle cx="213" cy="276" r="3" fill="#67e8f9"/>
<circle cx="232" cy="276" r="3" fill="#67e8f9"/>
<circle cx="251" cy="276" r="3" fill="#67e8f9"/>
<circle cx="269" cy="276" r="3" fill="#67e8f9"/>
<circle cx="288" cy="276" r="3" fill="#67e8f9"/>
<circle cx="307" cy="276" r="3" fill="#67e8f9"/>
<circle cx="325" cy="276" r="3" fill="#67e8f9"/>
<circle cx="344" cy="276" r="3" fill="#67e8f9"/>
<circle cx="363" cy="276" r="3" fill="#67e8f9"/>
<circle cx="381" cy="276" r="3" fill="#67e8f9"/>
<circle cx="400" cy="276" r="3" fill="#67e8f9"/>
<circle cx="419" cy="276" r="3" fill="#67e8f9"/>
<circle cx="437" cy="276" r="3" fill="#67e8f9"/>
<circle cx="456" cy="276" r="3" fill="#67e8f9"/>
<circle cx="475" cy="276" r="3" fill="#67e8f9"/>
<circle cx="493" cy="276" r="3" fill="#67e8f9"/>
<circle cx="512" cy="276" r="3" fill="#67e8f9"/>
<circle cx="530" cy="276" r="3" fill="#67e8f9"/>
<circle cx="549" cy="276" r="3" fill="#67e8f9"/>
<circle cx="568" cy="276" r="3" fill="#67e8f9"/>
<circle cx="586" cy="276" r="3" fill="#67e8f9"/>
<circle cx="605" cy="276" r="3" fill="#67e8f9"/>
<circle cx="624" cy="276" r="3" fill="#67e8f9"/>
<circle cx="642" cy="276" r="3" fill="#67e8f9"/>
<circle cx="661" cy="276" r="3" fill="#67e8f9"/>
<circle cx="680" cy="276" r="3" fill="#67e8f9"/>
<circle cx="698" cy="276" r="3" fill="#67e8f9"/>
<circle cx="717" cy="276" r="3" fill="#67e8f9"/>
<circle cx="736" cy="276" r="3" fill="#67e8f9"/>
<circle cx="754" cy="276" r="3" fill="#67e8f9"/>
<circle cx="773" cy="276" r="3" fill="#67e8f9"/>
<circle cx="792" cy="276" r="3" fill="#67e8f9"/>
<circle cx="810" cy="276" r="3" fill="#67e8f9"/>
<circle cx="829" cy="276" r="3" fill="#67e8f9"/>
<circle cx="848" cy="276" r="3" fill="#67e8f9"/>
<circle cx="866" cy="276" r="3" fill="#67e8f9"/>
<circle cx="885" cy="276" r="3" fill="#67e8f9"/>
<circle cx="904" cy="276" r="3" fill="#67e8f9"/>
<circle cx="922" cy="276" r="3" fill="#67e8f9"/>
<circle cx="941" cy="276" r="3" fill="#67e8f9"/>
<circle cx="960" cy="276" r="3" fill="#67e8f9"/>
</svg>